<svg version="1.1" id="Layer_1" xmlns="http://www.w3.org/2000/svg" x="0" y="0" viewBox="0 0 256 256" style="enable-background:new 0 0 256 256" xml:space="preserve"><style>.st0{fill:#4671c6}.st4{fill:#3762cc}.st5{fill:#e0ebfc}.st6{fill:#6bdddd}</style><path class="st0" d="M128 211.25H13a5 5 0 0 1-5-5V58a5 5 0 0 1 5-5h106.063A8.937 8.937 0 0 1 128 61.937V211.25zM128 211.25h115a5 5 0 0 0 5-5V58a5 5 0 0 0-5-5H136.937A8.937 8.937 0 0 0 128 61.937V211.25z"/><path class="st4" d="M128 213.25H13c-3.86 0-7-3.14-7-7V58c0-3.86 3.14-7 7-7h106.063C125.094 51 130 55.906 130 61.937V211.25a2 2 0 0 1-2 2zM13 55c-1.654 0-3 1.346-3 3v148.25c0 1.654 1.346 3 3 3h113V61.937A6.945 6.945 0 0 0 119.063 55H13z"/><path class="st4" d="M243 213.25H128a2 2 0 0 1-2-2V61.937C126 55.906 130.906 51 136.937 51H243c3.86 0 7 3.14 7 7v148.25c0 3.86-3.14 7-7 7zm-113-4h113c1.654 0 3-1.346 3-3V58c0-1.654-1.346-3-3-3H136.937A6.945 6.945 0 0 0 130 61.937V209.25z"/><path class="st6" d="M228 44.75V53H28v-8.25c-7.667.833-8.108 8.25-8.108 8.25v150h216.216V53s-.441-7.417-8.108-8.25z"/><path class="st4" d="M236.108 205H19.892a2 2 0 0 1-2-2V53c0-.04.001-.079.003-.119.188-3.149 2.495-9.316 9.888-10.12A2 2 0 0 1 30 44.75V51h196v-6.25a2.002 2.002 0 0 1 2.217-1.989c7.393.804 9.701 6.971 9.888 10.12.002.04.003.079.003.119v150a2 2 0 0 1-2 2zm-214.216-4h212.216V53.074c-.055-.643-.524-4.324-4.108-5.792V53a2 2 0 0 1-2 2H28a2 2 0 0 1-2-2v-5.717c-3.639 1.496-4.066 5.278-4.108 5.787V201z"/><path class="st5" d="M128 203H28V44.75h91.783A8.217 8.217 0 0 1 128 52.967V203zM128 203h100V44.75h-91.783A8.217 8.217 0 0 0 128 52.967V203z"/><path class="st6" d="M214.833 74.109h-71a3.5 3.5 0 1 1 0-7h71a3.5 3.5 0 1 1 0 7zM214.833 94.109h-71a3.5 3.5 0 1 1 0-7h71a3.5 3.5 0 1 1 0 7zM214.833 154.109h-71a3.5 3.5 0 1 1 0-7h71a3.5 3.5 0 1 1 0 7zM214.833 174.109h-71a3.5 3.5 0 1 1 0-7h71a3.5 3.5 0 1 1 0 7zM113.5 74.109H80.25a3.5 3.5 0 1 1 0-7h33.25a3.5 3.5 0 1 1 0 7zM113.5 94.109H80.25a3.5 3.5 0 1 1 0-7h33.25a3.5 3.5 0 1 1 0 7zM113.5 114.109h-71a3.5 3.5 0 1 1 0-7h71a3.5 3.5 0 1 1 0 7zM113.5 134.109h-71a3.5 3.5 0 1 1 0-7h71a3.5 3.5 0 1 1 0 7zM115 174.109H41a2 2 0 0 1-2-2v-23a2 2 0 0 1 2-2h74a2 2 0 0 1 2 2v23a2 2 0 0 1-2 2z"/><path class="st4" d="M128 205H28a2 2 0 0 1-2-2V44.75a2 2 0 0 1 2-2h91.783c5.634 0 10.217 4.583 10.217 10.217V203a2 2 0 0 1-2 2zm-98-4h96V52.967a6.224 6.224 0 0 0-6.217-6.217H30V201z"/><path class="st4" d="M228 205H128a2 2 0 0 1-2-2V52.967c0-5.634 4.583-10.217 10.217-10.217H228a2 2 0 0 1 2 2V203a2 2 0 0 1-2 2zm-98-4h96V46.75h-89.783A6.224 6.224 0 0 0 130 52.967V201z"/><path class="st6" d="M119.892 194.75H28c-7.667.833-8.108 8.25-8.108 8.25H128s-.441-7.417-8.108-8.25zM228 194.75h-91.892C128.441 195.583 128 203 128 203h108.108s-.441-7.417-8.108-8.25z"/><path class="st4" d="M128 205H19.892a1.996 1.996 0 0 1-1.997-2.118c.188-3.149 2.495-9.316 9.888-10.12.072-.008.144-.012.216-.012h91.892c.072 0 .145.004.216.012 7.393.804 9.701 6.971 9.888 10.12A1.998 1.998 0 0 1 128 205zm-105.6-4h103.093c-.669-1.695-2.205-3.831-5.715-4.25H28.114c-3.509.419-5.044 2.563-5.714 4.25z"/><path class="st4" d="M236.108 205H128a1.996 1.996 0 0 1-1.997-2.118c.188-3.149 2.495-9.316 9.888-10.12.072-.008.144-.012.216-.012H228c.072 0 .145.004.216.012 7.393.804 9.701 6.971 9.888 10.12a1.998 1.998 0 0 1-1.996 2.118zm-105.6-4h103.093c-.669-1.695-2.205-3.831-5.715-4.25h-91.665c-3.508.419-5.043 2.563-5.713 4.25z"/><path class="st6" d="M70 94.109H41a2 2 0 0 1-2-2v-23a2 2 0 0 1 2-2h29a2 2 0 0 1 2 2v23a2 2 0 0 1-2 2zM216.333 134.109h-74a2 2 0 0 1-2-2v-23a2 2 0 0 1 2-2h74a2 2 0 0 1 2 2v23a2 2 0 0 1-2 2z"/></svg>